<svg width="196" height="56" viewBox="0 0 196 56" fill="none" xmlns="http://www.w3.org/2000/svg">
<g clip-path="url(#clip0_93_3613)">
<path d="M61.0364 37H72.3891V33.7673H64.4982V18.6727H61.0364V37Z" fill="#6A6A6A"/>
<path d="M79.2113 37.3818C80.5859 37.3818 81.795 37.0763 82.8386 36.4654C83.8907 35.846 84.7095 34.9933 85.295 33.9073C85.8889 32.8127 86.1859 31.5527 86.1859 30.1273C86.1859 28.7103 85.8931 27.4588 85.3077 26.3727C84.7222 25.2782 83.9034 24.4212 82.8513 23.8018C81.8077 23.1824 80.5944 22.8727 79.2113 22.8727C77.8537 22.8727 76.6531 23.1782 75.6095 23.7891C74.5659 24.4 73.7471 25.2527 73.1531 26.3473C72.5592 27.4333 72.2622 28.6933 72.2622 30.1273C72.2622 31.5442 72.5507 32.8 73.1277 33.8945C73.7131 34.9806 74.5277 35.8333 75.5713 36.4527C76.615 37.0721 77.8283 37.3818 79.2113 37.3818ZM79.2113 34.1491C78.1337 34.1491 77.315 33.7885 76.755 33.0673C76.2034 32.3376 75.9277 31.3576 75.9277 30.1273C75.9277 28.9309 76.1907 27.9636 76.7168 27.2254C77.2513 26.4788 78.0828 26.1054 79.2113 26.1054C80.3059 26.1054 81.1289 26.4703 81.6804 27.2C82.2404 27.9297 82.5204 28.9054 82.5204 30.1273C82.5204 31.3067 82.2447 32.2739 81.6931 33.0291C81.1501 33.7757 80.3228 34.1491 79.2113 34.1491Z" fill="#6A6A6A"/>
<path d="M93.0319 37.3818C93.6768 37.3818 94.2707 37.3054 94.8138 37.1527C95.3653 37 95.8659 36.7836 96.3156 36.5036V37.8909C96.3326 38.4 96.201 38.8242 95.921 39.1636C95.6495 39.5115 95.2847 39.7703 94.8265 39.94C94.3683 40.1182 93.8804 40.2073 93.3629 40.2073C92.8792 40.2073 92.4295 40.1012 92.0138 39.8891C91.6065 39.677 91.2925 39.3673 91.0719 38.96L87.8647 40.5127C88.3907 41.4036 89.1416 42.1206 90.1174 42.6636C91.0932 43.2151 92.1665 43.4909 93.3374 43.4909C94.3471 43.4909 95.2847 43.3551 96.1501 43.0836C97.0156 42.8206 97.7453 42.4176 98.3392 41.8745C98.9416 41.3315 99.3532 40.64 99.5738 39.8C99.6501 39.503 99.701 39.2018 99.7265 38.8963C99.7604 38.5994 99.7774 38.2812 99.7774 37.9418V23.2545H96.7483V24.0182C96.2816 23.6533 95.7513 23.3733 95.1574 23.1782C94.5719 22.9745 93.9229 22.8727 93.2101 22.8727C91.895 22.8727 90.7495 23.1867 89.7738 23.8145C88.798 24.4424 88.0386 25.3036 87.4956 26.3982C86.961 27.4842 86.6938 28.7273 86.6938 30.1273C86.6938 31.5018 86.9568 32.7363 87.4829 33.8309C88.0174 34.9254 88.7598 35.7909 89.7101 36.4273C90.6604 37.0636 91.7677 37.3818 93.0319 37.3818ZM93.5919 34.3018C92.8453 34.3018 92.2344 34.1151 91.7592 33.7418C91.2841 33.3685 90.9319 32.8679 90.7029 32.24C90.4738 31.6036 90.3592 30.8994 90.3592 30.1273C90.3592 29.3636 90.478 28.6679 90.7156 28.04C90.9532 27.4036 91.318 26.8988 91.8101 26.5254C92.3107 26.1436 92.9471 25.9527 93.7192 25.9527C94.8053 25.9527 95.5816 26.3388 96.0483 27.1109C96.515 27.8745 96.7483 28.88 96.7483 30.1273C96.7483 31.3745 96.5107 32.3842 96.0356 33.1563C95.5689 33.92 94.7544 34.3018 93.5919 34.3018Z" fill="#6A6A6A"/>
<path d="M108 37.3818C109.374 37.3818 110.583 37.0763 111.627 36.4654C112.679 35.846 113.498 34.9933 114.083 33.9073C114.677 32.8127 114.974 31.5527 114.974 30.1273C114.974 28.7103 114.682 27.4588 114.096 26.3727C113.511 25.2782 112.692 24.4212 111.64 23.8018C110.596 23.1824 109.383 22.8727 108 22.8727C106.642 22.8727 105.442 23.1782 104.398 23.7891C103.354 24.4 102.536 25.2527 101.942 26.3473C101.348 27.4333 101.051 28.6933 101.051 30.1273C101.051 31.5442 101.339 32.8 101.916 33.8945C102.502 34.9806 103.316 35.8333 104.36 36.4527C105.403 37.0721 106.617 37.3818 108 37.3818ZM108 34.1491C106.922 34.1491 106.103 33.7885 105.543 33.0673C104.992 32.3376 104.716 31.3576 104.716 30.1273C104.716 28.9309 104.979 27.9636 105.505 27.2254C106.04 26.4788 106.871 26.1054 108 26.1054C109.094 26.1054 109.917 26.4703 110.469 27.2C111.029 27.9297 111.309 28.9054 111.309 30.1273C111.309 31.3067 111.033 32.2739 110.482 33.0291C109.939 33.7757 109.111 34.1491 108 34.1491Z" fill="#6A6A6A"/>
<path d="M116.5 21.3454H119.962V18.2909H116.5V21.3454ZM116.5 37H119.962V23.2545H116.5V37Z" fill="#6A6A6A"/>
<path d="M122.225 43.1091H125.712V36.5036C126.162 36.7836 126.658 37 127.201 37.1527C127.753 37.3054 128.351 37.3818 128.996 37.3818C130.26 37.3818 131.368 37.0636 132.318 36.4273C133.268 35.7909 134.006 34.9254 134.532 33.8309C135.067 32.7363 135.334 31.5018 135.334 30.1273C135.334 28.7273 135.063 27.4842 134.52 26.3982C133.985 25.3036 133.23 24.4424 132.254 23.8145C131.278 23.1867 130.133 22.8727 128.818 22.8727C128.105 22.8727 127.452 22.9745 126.858 23.1782C126.272 23.3733 125.746 23.6533 125.28 24.0182V23.2545H122.225V43.1091ZM128.436 34.3018C127.282 34.3018 126.468 33.92 125.992 33.1563C125.517 32.3842 125.28 31.3745 125.28 30.1273C125.28 28.88 125.513 27.8745 125.98 27.1109C126.455 26.3388 127.231 25.9527 128.309 25.9527C129.081 25.9527 129.713 26.1436 130.205 26.5254C130.706 26.8988 131.075 27.4036 131.312 28.04C131.55 28.6679 131.669 29.3636 131.669 30.1273C131.669 30.8994 131.554 31.6036 131.325 32.24C131.096 32.8679 130.744 33.3685 130.269 33.7418C129.794 34.1151 129.183 34.3018 128.436 34.3018Z" fill="#6A6A6A"/>
<path d="M141.606 37.3818C143.404 37.3818 144.813 36.9788 145.831 36.1727C146.849 35.3666 147.358 34.2594 147.358 32.8509C147.358 31.7818 147.027 30.9376 146.366 30.3182C145.712 29.6988 144.601 29.1854 143.031 28.7782C141.962 28.5066 141.164 28.286 140.638 28.1163C140.121 27.9467 139.777 27.7812 139.607 27.62C139.446 27.4588 139.366 27.2594 139.366 27.0218C139.366 26.623 139.556 26.3176 139.938 26.1054C140.329 25.8933 140.842 25.8085 141.478 25.8509C142.827 25.9527 143.566 26.5297 143.693 27.5818L147.231 26.9454C147.053 25.6982 146.442 24.7097 145.398 23.98C144.355 23.2418 143.023 22.8727 141.402 22.8727C139.739 22.8727 138.411 23.263 137.418 24.0436C136.426 24.8242 135.929 25.8763 135.929 27.2C135.929 28.2521 136.273 29.0836 136.96 29.6945C137.647 30.297 138.831 30.8145 140.511 31.2473C141.504 31.5103 142.233 31.7224 142.7 31.8836C143.175 32.0448 143.481 32.2103 143.616 32.38C143.752 32.5412 143.82 32.7576 143.82 33.0291C143.82 33.4618 143.65 33.8012 143.311 34.0473C142.972 34.2848 142.488 34.4036 141.86 34.4036C141.096 34.4036 140.464 34.2212 139.964 33.8563C139.472 33.4915 139.153 32.9867 139.009 32.3418L135.471 32.8763C135.7 34.3103 136.345 35.4218 137.406 36.2109C138.475 36.9915 139.875 37.3818 141.606 37.3818Z" fill="#6A6A6A"/>
<path d="M153.744 37.4073C154.737 37.4073 155.602 37.2418 156.341 36.9109C157.079 36.58 157.698 36.1388 158.199 35.5873V37H161.253V23.2545H157.766V30.2291C157.766 31.0776 157.668 31.7648 157.473 32.2909C157.287 32.8085 157.045 33.203 156.748 33.4745C156.451 33.7376 156.133 33.9157 155.793 34.0091C155.454 34.1024 155.136 34.1491 154.839 34.1491C154.101 34.1491 153.528 33.9836 153.121 33.6527C152.722 33.3218 152.433 32.9103 152.255 32.4182C152.077 31.926 151.971 31.4382 151.937 30.9545C151.903 30.4624 151.886 30.0594 151.886 29.7454V23.2545H148.373V30.9673C148.373 31.1963 148.39 31.5612 148.424 32.0618C148.458 32.5624 148.556 33.1182 148.717 33.7291C148.878 34.3315 149.145 34.9127 149.519 35.4727C149.901 36.0327 150.431 36.4951 151.11 36.86C151.788 37.2248 152.667 37.4073 153.744 37.4073Z" fill="#6A6A6A"/>
<path d="M163.258 37H166.745V28.6763C166.745 27.8873 166.961 27.2467 167.394 26.7545C167.835 26.2539 168.416 26.0036 169.138 26.0036C169.893 26.0036 170.483 26.2582 170.907 26.7673C171.339 27.2679 171.556 27.9721 171.556 28.88V37H175.018V28.6763C175.018 27.8873 175.234 27.2467 175.667 26.7545C176.108 26.2539 176.689 26.0036 177.41 26.0036C178.166 26.0036 178.755 26.2582 179.179 26.7673C179.612 27.2679 179.829 27.9721 179.829 28.88V37H183.29V27.9636C183.29 26.4618 182.887 25.2485 182.081 24.3236C181.284 23.3903 180.1 22.9236 178.53 22.9236C177.648 22.9236 176.838 23.1145 176.099 23.4963C175.361 23.8782 174.772 24.4 174.33 25.0618C173.974 24.417 173.465 23.8994 172.803 23.5091C172.141 23.1188 171.318 22.9236 170.334 22.9236C169.502 22.9236 168.739 23.0891 168.043 23.42C167.347 23.7424 166.77 24.1879 166.312 24.7563V23.2545H163.258V37Z" fill="#6A6A6A"/>
<path d="M32 8C20.9543 8 12 16.9543 12 28C23.0457 28 32 19.0457 32 8Z" fill="#6A6A6A"/>
<path d="M32 48C43.0457 48 52 39.0457 52 28C40.9543 28 32 36.9543 32 48Z" fill="#6A6A6A"/>
<path d="M32 8C43.0457 8 52 16.9543 52 28C40.9543 28 32 19.0457 32 8Z" fill="#6A6A6A"/>
<path d="M32 48C20.9543 48 12 39.0457 12 28C23.0457 28 32 36.9543 32 48Z" fill="#6A6A6A"/>
</g>
<defs>
<clipPath id="clip0_93_3613">
<rect width="172" height="40" fill="white" transform="translate(12 8)"/>
</clipPath>
</defs>
</svg>
