<svg width="821" height="199" viewBox="0 0 821 199" fill="none" xmlns="http://www.w3.org/2000/svg">
<path d="M0 196.274L72.3053 0H102.865L34.9248 196.274H0ZM148.158 196.274L80.4908 0H112.687L184.72 196.274H148.158ZM37.3805 119.127H144.883V147.478H37.3805V119.127Z" fill="white"/>
<path d="M205.292 196.274V57.2466H238.853V90.7767H239.671V196.274H205.292ZM239.671 123.762L236.124 90.7767C239.398 78.9639 244.946 69.968 252.768 63.789C260.59 57.61 269.958 54.5205 280.872 54.5205C284.692 54.5205 287.42 54.884 289.057 55.611V88.0507C288.148 87.6872 286.874 87.5055 285.237 87.5055C283.6 87.3237 281.599 87.2329 279.235 87.2329C265.956 87.2329 256.042 90.1406 249.494 95.9562C242.945 101.772 239.671 111.04 239.671 123.762Z" fill="white"/>
<path d="M348.359 196.274L292.698 57.2466H329.806L374.28 185.097H355.999L400.474 57.2466H436.49L380.556 196.274H348.359Z" fill="white"/>
<path d="M509.746 199C495.012 199 482.006 195.911 470.729 189.732C459.633 183.553 450.992 175.011 444.808 164.107C438.623 153.021 435.531 140.39 435.531 126.215C435.531 112.04 438.623 99.5909 444.808 88.8685C450.992 78.1461 459.633 69.7863 470.729 63.789C482.006 57.61 495.012 54.5205 509.746 54.5205C524.662 54.5205 537.668 57.61 548.764 63.789C559.86 69.7863 568.5 78.1461 574.684 88.8685C580.869 99.5909 583.961 112.04 583.961 126.215C583.961 140.39 580.778 153.021 574.412 164.107C568.227 175.011 559.587 183.553 548.491 189.732C537.395 195.911 524.48 199 509.746 199ZM509.746 171.467C517.022 171.467 523.57 169.65 529.391 166.015C535.212 162.199 539.76 156.928 543.034 150.204C546.308 143.298 547.945 135.211 547.945 125.942C547.945 112.312 544.307 101.59 537.031 93.7753C529.937 85.9607 520.842 82.0534 509.746 82.0534C498.65 82.0534 489.464 85.9607 482.188 93.7753C474.912 101.59 471.274 112.312 471.274 125.942C471.274 135.211 472.911 143.298 476.185 150.204C479.642 156.928 484.189 162.199 489.828 166.015C495.649 169.65 502.288 171.467 509.746 171.467Z" fill="white"/>
<path d="M603.792 196.274V57.2466H637.353V90.7767H638.171V196.274H603.792ZM638.171 123.762L634.624 90.7767C637.898 78.9639 643.446 69.968 651.268 63.789C659.09 57.61 668.458 54.5205 679.372 54.5205C683.191 54.5205 685.92 54.884 687.557 55.611V88.0507C686.648 87.6872 685.374 87.5055 683.737 87.5055C682.1 87.3237 680.099 87.2329 677.734 87.2329C664.456 87.2329 654.542 90.1406 647.994 95.9562C641.445 101.772 638.171 111.04 638.171 123.762Z" fill="white"/>
<path d="M786.621 196.274C785.711 192.639 784.984 188.641 784.438 184.279C784.074 179.918 783.892 174.647 783.892 168.468H782.801V102.499C782.801 95.2292 780.709 89.7772 776.525 86.1425C772.524 82.326 766.339 80.4178 757.972 80.4178C749.786 80.4178 743.238 81.9626 738.326 85.0521C733.597 87.9598 730.687 92.2306 729.595 97.8644H696.58C698.036 84.9612 704.22 74.5114 715.134 66.5151C726.048 58.5187 740.691 54.5205 759.063 54.5205C778.162 54.5205 792.624 58.8822 802.446 67.6055C812.269 76.147 817.18 88.7776 817.18 105.497V168.468C817.18 172.83 817.453 177.283 817.999 181.826C818.726 186.369 819.727 191.185 821 196.274H786.621ZM738.326 199C724.32 199 713.133 195.547 704.766 188.641C696.58 181.553 692.488 172.103 692.488 160.29C692.488 147.569 697.126 137.483 706.403 130.031C715.68 122.58 728.777 117.583 745.693 115.038L789.077 108.496V130.304L751.423 136.029C743.238 137.301 737.053 139.573 732.869 142.844C728.868 146.115 726.867 150.658 726.867 156.474C726.867 161.744 728.777 165.833 732.596 168.741C736.416 171.467 741.692 172.83 748.422 172.83C758.244 172.83 766.43 170.377 772.978 165.47C779.527 160.563 782.801 154.566 782.801 147.478L786.621 168.468C782.983 178.464 776.98 186.097 768.613 191.367C760.427 196.456 750.332 199 738.326 199Z" fill="white"/>
</svg>
