<svg width="226" height="56" viewBox="0 0 226 56" fill="none" xmlns="http://www.w3.org/2000/svg">
<g clip-path="url(#clip0_93_3628)">
<path fill-rule="evenodd" clip-rule="evenodd" d="M37.5557 19.6853C35.9112 18.5865 33.9778 18 32 18V8C35.9556 8 39.8224 9.17298 43.1114 11.3706C46.4004 13.5682 48.9638 16.6918 50.4776 20.3463C51.9913 24.0008 52.3874 28.0222 51.6157 31.9018C50.844 35.7814 48.9392 39.3451 46.1421 42.1421C43.3451 44.9392 39.7814 46.844 35.9018 47.6157C32.0222 48.3874 28.0008 47.9913 24.3463 46.4776C20.6918 44.9638 17.5682 42.4004 15.3706 39.1114C13.173 35.8224 12 31.9556 12 28H22C22 29.9778 22.5865 31.9112 23.6853 33.5557C24.7841 35.2002 26.3459 36.4819 28.1732 37.2388C30.0004 37.9957 32.0111 38.1937 33.9509 37.8078C35.8907 37.422 37.6725 36.4696 39.0711 35.0711C40.4696 33.6725 41.422 31.8907 41.8078 29.9509C42.1937 28.0111 41.9957 26.0004 41.2388 24.1732C40.4819 22.3459 39.2002 20.7841 37.5557 19.6853Z" fill="#6A6A6A"/>
<path fill-rule="evenodd" clip-rule="evenodd" d="M22 8.00001C22 9.31322 21.7413 10.6136 21.2388 11.8268C20.7362 13.0401 19.9997 14.1425 19.0711 15.0711C18.1425 15.9997 17.0401 16.7363 15.8268 17.2388C14.6136 17.7413 13.3132 18 12 18L12 28C14.6264 28 17.2272 27.4827 19.6537 26.4776C22.0802 25.4725 24.285 23.9993 26.1421 22.1421C27.9993 20.285 29.4725 18.0802 30.4776 15.6537C31.4827 13.2272 32 10.6264 32 8L22 8.00001Z" fill="#6A6A6A"/>
<path d="M137.619 22.4525H132.767V37.8648H137.619V22.4525Z" fill="#6A6A6A"/>
<path d="M133.307 19.5666C133.814 20.074 134.448 20.3277 135.209 20.3277C135.97 20.3277 136.594 20.074 137.08 19.5666C137.567 19.0381 137.81 18.4038 137.81 17.6638C137.81 16.9028 137.567 16.2685 137.08 15.7611C136.594 15.2537 135.97 15 135.209 15C134.448 15 133.814 15.2537 133.307 15.7611C132.82 16.2685 132.577 16.9028 132.577 17.6638C132.577 18.4038 132.82 19.0381 133.307 19.5666Z" fill="#6A6A6A"/>
<path d="M63.1562 37.8648V15.4757H68.1352V33.4885H78.0613V37.8648H63.1562Z" fill="#6A6A6A"/>
<path fill-rule="evenodd" clip-rule="evenodd" d="M87.0274 38.2136C85.4418 38.2136 84.0042 37.8648 82.7145 37.1671C81.446 36.4483 80.4418 35.4758 79.7018 34.2495C78.9619 33.0233 78.5919 31.6491 78.5919 30.1269C78.5919 28.6047 78.9619 27.2411 79.7018 26.036C80.4418 24.8309 81.446 23.8795 82.7145 23.1819C83.983 22.463 85.4207 22.1036 87.0274 22.1036C88.6342 22.1036 90.0718 22.4525 91.3403 23.1501C92.6088 23.8478 93.6131 24.8098 94.353 26.036C95.093 27.2411 95.463 28.6047 95.463 30.1269C95.463 31.6491 95.093 33.0233 94.353 34.2495C93.6131 35.4758 92.6088 36.4483 91.3403 37.1671C90.0718 37.8648 88.6342 38.2136 87.0274 38.2136ZM87.0274 33.8056C87.7251 33.8056 88.3382 33.6576 88.8668 33.3616C89.3953 33.0445 89.797 32.6111 90.0718 32.0614C90.3678 31.4906 90.5158 30.8457 90.5158 30.1269C90.5158 29.4081 90.3678 28.7844 90.0718 28.2559C89.7758 27.7062 89.3636 27.2834 88.835 26.9874C88.3276 26.6702 87.7251 26.5117 87.0274 26.5117C86.3509 26.5117 85.7484 26.6702 85.2198 26.9874C84.6913 27.2834 84.279 27.7062 83.983 28.2559C83.687 28.8056 83.5391 29.4398 83.5391 30.1586C83.5391 30.8563 83.687 31.4906 83.983 32.0614C84.279 32.6111 84.6913 33.0445 85.2198 33.3616C85.7484 33.6576 86.3509 33.8056 87.0274 33.8056Z" fill="#6A6A6A"/>
<path fill-rule="evenodd" clip-rule="evenodd" d="M99.3057 43.8902C100.595 44.4821 102.086 44.7781 103.777 44.7781C105.426 44.7781 106.896 44.4504 108.185 43.795C109.475 43.1396 110.49 42.2306 111.23 41.0678C111.97 39.905 112.34 38.5308 112.34 36.9451V22.4525H107.583V23.488C107.229 23.1902 106.827 22.9402 106.378 22.7379C105.553 22.3362 104.612 22.1353 103.555 22.1353C102.139 22.1353 100.881 22.4736 99.7814 23.1501C98.6819 23.8055 97.8152 24.7146 97.1809 25.8774C96.5466 27.0191 96.2296 28.3087 96.2296 29.7464C96.2296 31.1629 96.5466 32.4525 97.1809 33.6153C97.8152 34.7781 98.6819 35.6978 99.7814 36.3743C100.881 37.0508 102.139 37.3891 103.555 37.3891C104.591 37.3891 105.532 37.1883 106.378 36.7866C106.787 36.592 107.157 36.3627 107.488 36.0986V37.072C107.488 38.1502 107.139 38.9853 106.441 39.5773C105.765 40.1693 104.824 40.4652 103.619 40.4652C102.646 40.4652 101.811 40.2961 101.113 39.9578C100.437 39.6196 99.8236 39.1227 99.2739 38.4673L96.293 41.4483C97.0329 42.5054 98.0372 43.3194 99.3057 43.8902ZM106.219 32.6322C105.733 32.9282 105.151 33.0762 104.475 33.0762C103.798 33.0762 103.206 32.9282 102.699 32.6322C102.213 32.3362 101.832 31.9345 101.557 31.4271C101.282 30.8986 101.145 30.3383 101.145 29.7464C101.145 29.1121 101.282 28.5413 101.557 28.0339C101.832 27.5265 102.223 27.1248 102.731 26.8288C103.238 26.5328 103.819 26.3848 104.475 26.3848C105.151 26.3848 105.733 26.5328 106.219 26.8288C106.726 27.1248 107.107 27.5265 107.361 28.0339C107.636 28.5413 107.773 29.1121 107.773 29.7464C107.773 30.3806 107.636 30.9514 107.361 31.4588C107.107 31.9451 106.726 32.3362 106.219 32.6322Z" fill="#6A6A6A"/>
<path fill-rule="evenodd" clip-rule="evenodd" d="M122.551 38.2136C120.965 38.2136 119.527 37.8648 118.238 37.1671C116.969 36.4483 115.965 35.4758 115.225 34.2495C114.485 33.0233 114.115 31.6491 114.115 30.1269C114.115 28.6047 114.485 27.2411 115.225 26.036C115.965 24.8309 116.969 23.8795 118.238 23.1819C119.506 22.463 120.944 22.1036 122.551 22.1036C124.157 22.1036 125.595 22.4525 126.863 23.1501C128.132 23.8478 129.136 24.8098 129.876 26.036C130.616 27.2411 130.986 28.6047 130.986 30.1269C130.986 31.6491 130.616 33.0233 129.876 34.2495C129.136 35.4758 128.132 36.4483 126.863 37.1671C125.595 37.8648 124.157 38.2136 122.551 38.2136ZM122.551 33.8056C123.248 33.8056 123.861 33.6576 124.39 33.3616C124.918 33.0445 125.32 32.6111 125.595 32.0614C125.891 31.4906 126.039 30.8457 126.039 30.1269C126.039 29.4081 125.891 28.7844 125.595 28.2559C125.299 27.7062 124.887 27.2834 124.358 26.9874C123.851 26.6702 123.248 26.5117 122.551 26.5117C121.874 26.5117 121.271 26.6702 120.743 26.9874C120.214 27.2834 119.802 27.7062 119.506 28.2559C119.21 28.8056 119.062 29.4398 119.062 30.1586C119.062 30.8563 119.21 31.4906 119.506 32.0614C119.802 32.6111 120.214 33.0445 120.743 33.3616C121.271 33.6576 121.874 33.8056 122.551 33.8056Z" fill="#6A6A6A"/>
<path fill-rule="evenodd" clip-rule="evenodd" d="M149.281 38.1819C148.246 38.1819 147.294 37.9811 146.427 37.5794C145.971 37.368 145.559 37.1156 145.191 36.8222V44.3659H140.402V22.4525H145.254V23.5162C145.606 23.2283 145.997 22.9794 146.427 22.7696C147.294 22.3467 148.246 22.1353 149.281 22.1353C150.74 22.1353 152.03 22.4842 153.15 23.1819C154.292 23.8795 155.18 24.8309 155.814 26.036C156.47 27.2411 156.797 28.6153 156.797 30.1586C156.797 31.702 156.47 33.0762 155.814 34.2813C155.18 35.4864 154.292 36.4377 153.15 37.1354C152.03 37.8331 150.74 38.1819 149.281 38.1819ZM148.394 33.8056C149.091 33.8056 149.694 33.647 150.201 33.3299C150.73 33.0128 151.142 32.5793 151.438 32.0297C151.734 31.48 151.882 30.8563 151.882 30.1586C151.882 29.4398 151.734 28.8056 151.438 28.2559C151.142 27.7062 150.73 27.2834 150.201 26.9874C149.694 26.6702 149.102 26.5117 148.425 26.5117C147.749 26.5117 147.146 26.6702 146.618 26.9874C146.11 27.2834 145.709 27.7062 145.413 28.2559C145.117 28.8056 144.969 29.4398 144.969 30.1586C144.969 30.8563 145.106 31.48 145.381 32.0297C145.677 32.5793 146.089 33.0128 146.618 33.3299C147.146 33.647 147.738 33.8056 148.394 33.8056Z" fill="#6A6A6A"/>
<path d="M161.546 37.8965C162.434 38.1291 163.332 38.2453 164.241 38.2453C166.165 38.2453 167.687 37.8014 168.808 36.9134C169.949 36.0255 170.52 34.831 170.52 33.3299C170.52 32.3574 170.341 31.5751 169.981 30.9832C169.622 30.3701 169.157 29.8838 168.586 29.5244C168.015 29.165 167.412 28.8795 166.778 28.6681C166.144 28.4567 165.541 28.277 164.971 28.129C164.4 27.981 163.935 27.8119 163.575 27.6216C163.216 27.4313 163.036 27.1776 163.036 26.8605C163.036 26.5645 163.174 26.3425 163.448 26.1945C163.723 26.0254 164.135 25.9409 164.685 25.9409C165.256 25.9409 165.837 26.0571 166.429 26.2897C167.042 26.5222 167.592 26.924 168.078 27.4948L170.837 24.7041C170.14 23.8161 169.231 23.1501 168.11 22.7062C167.011 22.2411 165.806 22.0085 164.495 22.0085C163.248 22.0085 162.159 22.2199 161.229 22.6427C160.298 23.0656 159.579 23.647 159.072 24.3869C158.565 25.1057 158.311 25.962 158.311 26.9557C158.311 27.8859 158.491 28.6576 158.85 29.2707C159.209 29.8626 159.675 30.3278 160.245 30.666C160.816 31.0043 161.419 31.2686 162.053 31.4588C162.687 31.6491 163.29 31.8288 163.861 31.998C164.431 32.146 164.897 32.3257 165.256 32.5371C165.637 32.7274 165.827 33.0128 165.827 33.3933C165.827 33.6893 165.668 33.9218 165.351 34.091C165.055 34.2601 164.622 34.3447 164.051 34.3447C163.226 34.3447 162.465 34.1967 161.768 33.9007C161.07 33.5836 160.467 33.1502 159.96 32.6005L157.201 35.3912C157.73 35.962 158.364 36.4695 159.104 36.9134C159.865 37.3362 160.679 37.6639 161.546 37.8965Z" fill="#6A6A6A"/>
<path d="M179.368 38.2136C177.952 38.2136 176.694 37.9282 175.595 37.3574C174.516 36.7654 173.671 35.962 173.058 34.9472C172.444 33.9113 172.138 32.7274 172.138 31.3954V22.4525H176.99V31.332C176.99 31.8605 177.074 32.3151 177.244 32.6956C177.434 33.0762 177.709 33.3722 178.068 33.5836C178.428 33.795 178.861 33.9007 179.368 33.9007C180.087 33.9007 180.658 33.6787 181.081 33.2347C181.504 32.7696 181.715 32.1354 181.715 31.332V22.4525H186.567V31.3637C186.567 32.7168 186.261 33.9113 185.647 34.9472C185.034 35.962 184.189 36.7654 183.11 37.3574C182.032 37.9282 180.785 38.2136 179.368 38.2136Z" fill="#6A6A6A"/>
<path d="M193.831 22.4525H188.979V37.8648H193.831V28.8584C193.831 28.3299 193.937 27.8859 194.148 27.5265C194.381 27.1671 194.688 26.8922 195.068 26.702C195.449 26.4905 195.882 26.3848 196.368 26.3848C197.066 26.3848 197.647 26.6068 198.112 27.0508C198.599 27.4736 198.842 28.0762 198.842 28.8584V37.8648H203.694V28.8584C203.694 28.3299 203.8 27.8859 204.011 27.5265C204.244 27.1671 204.55 26.8922 204.931 26.702C205.311 26.4905 205.745 26.3848 206.231 26.3848C206.929 26.3848 207.51 26.6068 207.975 27.0508C208.461 27.4736 208.704 28.0762 208.704 28.8584V37.8648H213.557V28.3193C213.557 27.0297 213.282 25.9303 212.732 25.0212C212.203 24.0909 211.474 23.3827 210.544 22.8965C209.635 22.389 208.588 22.1353 207.404 22.1353C206.199 22.1353 205.11 22.3996 204.138 22.9282C203.506 23.2649 202.954 23.6995 202.481 24.2319C202.04 23.675 201.504 23.2193 200.871 22.8647C200.026 22.3785 199.064 22.1353 197.986 22.1353C196.844 22.1353 195.819 22.3785 194.91 22.8647C194.514 23.067 194.155 23.3093 193.831 23.5916V22.4525Z" fill="#6A6A6A"/>
</g>
<defs>
<clipPath id="clip0_93_3628">
<rect width="202" height="40" fill="white" transform="translate(12 8)"/>
</clipPath>
</defs>
</svg>
