<?xml version="1.0" encoding="UTF-8" standalone="no"?>
<svg
   width="22"
   height="22"
   viewBox="0 0 22 22"
   fill="none"
   version="1.1"
   id="svg1"
   sodipodi:docname="black-hamburger.svg"
   inkscape:version="1.4 (e7c3feb1, 2024-10-09)"
   xmlns:inkscape="http://www.inkscape.org/namespaces/inkscape"
   xmlns:sodipodi="http://sodipodi.sourceforge.net/DTD/sodipodi-0.dtd"
   xmlns="http://www.w3.org/2000/svg"
   xmlns:svg="http://www.w3.org/2000/svg">
  <sodipodi:namedview
     id="namedview1"
     pagecolor="#ffffff"
     bordercolor="#000000"
     borderopacity="0.25"
     inkscape:showpageshadow="2"
     inkscape:pageopacity="0.0"
     inkscape:pagecheckerboard="0"
     inkscape:deskcolor="#d1d1d1"
     inkscape:zoom="17.945447"
     inkscape:cx="7.2999018"
     inkscape:cy="12.454413"
     inkscape:window-width="1200"
     inkscape:window-height="1186"
     inkscape:window-x="2240"
     inkscape:window-y="30"
     inkscape:window-maximized="0"
     inkscape:current-layer="svg1" />
  <defs
     id="defs1">
    <clipPath
       id="clip0_137_1409">
      <rect
         width="22"
         height="22"
         fill="white"
         id="rect1" />
    </clipPath>
  </defs>
  <g
     clip-path="url(#clip0_137_1409)"
     id="g1"
     transform="matrix(0.74417417,0,0,0.8142522,2.8753863,2.0766767)"
     style="fill:#000000">
    <path
       d="M 20.625,19.25 H 1.37501 C 0.615586,19.25 0,18.6344 0,17.875 0,17.1156 0.615586,16.5 1.37501,16.5 H 20.625 c 0.7594,0 1.375,0.6156 1.375,1.375 0,0.7594 -0.6156,1.375 -1.375,1.375 z m 0,-6.875 H 1.37501 C 0.615586,12.375 0,11.7594 0,11 0,10.2406 0.615586,9.62502 1.37501,9.62502 H 20.625 C 21.3844,9.62502 22,10.2406 22,11 c 0,0.7594 -0.6156,1.375 -1.375,1.375 z m 0,-6.87501 H 1.37501 C 0.615586,5.49999 0,4.8844 0,4.12498 0,3.36556 0.615586,2.74997 1.37501,2.74997 H 20.625 c 0.7594,0 1.375,0.61559 1.375,1.37501 0,0.75942 -0.6156,1.37501 -1.375,1.37501 z"
       fill="#ffffff"
       id="path1"
       style="fill:#000000" />
  </g>
</svg>
