<svg width="92" height="22" viewBox="0 0 92 22" fill="none" xmlns="http://www.w3.org/2000/svg">
<path d="M0 21.6986L8.10242 0H11.5268L3.91362 21.6986H0ZM16.6023 21.6986L9.01968 0H12.6276L20.6994 21.6986H16.6023ZM4.1888 13.1699H16.2354V16.3041H4.1888V13.1699Z" fill="#010101"/>
<path d="M23.0047 21.6986V6.32877H26.7655V10.0356H26.8572V21.6986H23.0047ZM26.8572 13.6822L26.4597 10.0356C26.8266 8.72968 27.4483 7.73516 28.3248 7.05205C29.2013 6.36895 30.251 6.0274 31.474 6.0274C31.9021 6.0274 32.2078 6.06758 32.3913 6.14794V9.73425C32.2894 9.69406 32.1467 9.67397 31.9632 9.67397C31.7798 9.65388 31.5556 9.64384 31.2906 9.64384C29.8026 9.64384 28.6917 9.9653 27.9579 10.6082C27.2241 11.2511 26.8572 12.2758 26.8572 13.6822Z" fill="#010101"/>
<path d="M39.0366 21.6986L32.7993 6.32877H36.9575L41.9413 20.463H39.8927L44.8765 6.32877H48.9124L42.6445 21.6986H39.0366Z" fill="#010101"/>
<path d="M57.1214 22C55.4703 22 54.0129 21.6584 52.7491 20.9753C51.5057 20.2922 50.5375 19.3479 49.8445 18.1425C49.1514 16.9169 48.8049 15.5205 48.8049 13.9534C48.8049 12.3863 49.1514 11.01 49.8445 9.82466C50.5375 8.63927 51.5057 7.71507 52.7491 7.05205C54.0129 6.36895 55.4703 6.0274 57.1214 6.0274C58.7928 6.0274 60.2502 6.36895 61.4936 7.05205C62.737 7.71507 63.7052 8.63927 64.3983 9.82466C65.0913 11.01 65.4378 12.3863 65.4378 13.9534C65.4378 15.5205 65.0811 16.9169 64.3677 18.1425C63.6746 19.3479 62.7064 20.2922 61.463 20.9753C60.2197 21.6584 58.7724 22 57.1214 22ZM57.1214 18.9562C57.9367 18.9562 58.6705 18.7553 59.3228 18.3534C59.975 17.9315 60.4846 17.3489 60.8515 16.6055C61.2184 15.842 61.4019 14.9479 61.4019 13.9233C61.4019 12.4164 60.9942 11.2311 60.1789 10.3671C59.3839 9.5032 58.3648 9.07123 57.1214 9.07123C55.878 9.07123 54.8486 9.5032 54.0333 10.3671C53.2179 11.2311 52.8103 12.4164 52.8103 13.9233C52.8103 14.9479 52.9937 15.842 53.3606 16.6055C53.7479 17.3489 54.2575 17.9315 54.8894 18.3534C55.5416 18.7553 56.2856 18.9562 57.1214 18.9562Z" fill="#010101"/>
<path d="M67.66 21.6986V6.32877H71.4208V10.0356H71.5125V21.6986H67.66ZM71.5125 13.6822L71.115 10.0356C71.4819 8.72968 72.1036 7.73516 72.9801 7.05205C73.8566 6.36895 74.9063 6.0274 76.1293 6.0274C76.5574 6.0274 76.8631 6.06758 77.0466 6.14794V9.73425C76.9447 9.69406 76.802 9.67397 76.6185 9.67397C76.4351 9.65388 76.2109 9.64384 75.9459 9.64384C74.4579 9.64384 73.347 9.9653 72.6132 10.6082C71.8794 11.2511 71.5125 12.2758 71.5125 13.6822Z" fill="#010101"/>
<path d="M88.1475 21.6986C88.0456 21.2968 87.9641 20.8548 87.9029 20.3726C87.8622 19.8904 87.8418 19.3078 87.8418 18.6247H87.7195V11.3315C87.7195 10.5279 87.4851 9.92511 87.0163 9.52329C86.5678 9.10137 85.8748 8.89041 84.9371 8.89041C84.0199 8.89041 83.2861 9.06119 82.7357 9.40274C82.2057 9.7242 81.8796 10.1963 81.7573 10.8192H78.0577C78.2208 9.39269 78.9138 8.23744 80.1368 7.35342C81.3598 6.46941 83.0007 6.0274 85.0594 6.0274C87.1997 6.0274 88.8202 6.50959 89.9209 7.47397C91.0216 8.41827 91.572 9.81461 91.572 11.663V18.6247C91.572 19.1068 91.6025 19.5991 91.6637 20.1014C91.7452 20.6037 91.8573 21.1361 92 21.6986H88.1475ZM82.7357 22C81.1662 22 79.9126 21.6183 78.975 20.8548C78.0577 20.0712 77.5991 19.0265 77.5991 17.7205C77.5991 16.3142 78.1189 15.1991 79.1584 14.3753C80.198 13.5516 81.6656 12.9991 83.5612 12.7178L88.4227 11.9945V14.4055L84.2033 15.0384C83.2861 15.179 82.593 15.4301 82.1242 15.7918C81.6758 16.1534 81.4516 16.6557 81.4516 17.2986C81.4516 17.8813 81.6656 18.3333 82.0936 18.6548C82.5217 18.9562 83.1128 19.1068 83.867 19.1068C84.9677 19.1068 85.885 18.8356 86.6188 18.2931C87.3526 17.7507 87.7195 17.0877 87.7195 16.3041L88.1475 18.6247C87.7399 19.7297 87.0672 20.5735 86.1296 21.1562C85.2123 21.7187 84.081 22 82.7357 22Z" fill="#010101"/>
</svg>
