<svg width="8" height="14" viewBox="0 0 8 14" fill="none" xmlns="http://www.w3.org/2000/svg">
<path d="M2.46395 7.83197H0.879945C0.623945 7.83197 0.543945 7.73597 0.543945 7.49597V5.55997C0.543945 5.30397 0.639945 5.22397 0.879945 5.22397H2.46395V3.81597C2.46395 3.17597 2.57595 2.56797 2.89595 2.00797C3.23195 1.43197 3.71195 1.04797 4.31995 0.823967C4.71995 0.679967 5.11995 0.615967 5.55195 0.615967H7.11995C7.34395 0.615967 7.43994 0.711967 7.43994 0.935967V2.75997C7.43994 2.98397 7.34395 3.07997 7.11995 3.07997C6.68794 3.07997 6.25595 3.07997 5.82395 3.09597C5.39195 3.09597 5.16795 3.30397 5.16795 3.75197C5.15195 4.23197 5.16795 4.69597 5.16795 5.19197H7.02395C7.27995 5.19197 7.37594 5.28797 7.37594 5.54397V7.47997C7.37594 7.73597 7.29595 7.81597 7.02395 7.81597H5.16795V13.032C5.16795 13.304 5.08795 13.4 4.79995 13.4H2.79995C2.55995 13.4 2.46395 13.304 2.46395 13.064V7.83197Z" fill="#6A6A6A"/>
</svg>
