<svg width="16" height="16" viewBox="0 0 16 16" fill="none" xmlns="http://www.w3.org/2000/svg">
<g clip-path="url(#clip0_73_369)">
<path d="M8.00279 3.8916C7.46365 3.89151 6.92977 3.99764 6.43165 4.20392C5.93353 4.4102 5.48092 4.7126 5.09969 5.09383C4.71846 5.47506 4.41606 5.92767 4.20978 6.42579C4.0035 6.92391 3.89737 7.45779 3.89746 7.99694C3.89737 8.53608 4.0035 9.06996 4.20978 9.56808C4.41606 10.0662 4.71846 10.5188 5.09969 10.9C5.48092 11.2813 5.93353 11.5837 6.43165 11.7899C6.92977 11.9962 7.46365 12.1024 8.00279 12.1023C8.54194 12.1024 9.07582 11.9962 9.57394 11.7899C10.0721 11.5837 10.5247 11.2813 10.9059 10.9C11.2871 10.5188 11.5895 10.0662 11.7958 9.56808C12.0021 9.06996 12.1082 8.53608 12.1081 7.99694C12.1082 7.45779 12.0021 6.92391 11.7958 6.42579C11.5895 5.92767 11.2871 5.47506 10.9059 5.09383C10.5247 4.7126 10.0721 4.4102 9.57394 4.20392C9.07582 3.99764 8.54194 3.89151 8.00279 3.8916ZM8.00279 10.6616C7.47596 10.6615 6.961 10.5051 6.52301 10.2124C6.08502 9.91958 5.74367 9.50352 5.54212 9.01676C5.34057 8.53001 5.28787 7.99442 5.39068 7.47772C5.49349 6.96101 5.7472 6.4864 6.11973 6.11387C6.49226 5.74134 6.96687 5.48763 7.48358 5.38482C8.00028 5.28201 8.53587 5.33471 9.02262 5.53626C9.50938 5.73781 9.92544 6.07916 10.2182 6.51715C10.511 6.95514 10.6673 7.4701 10.6675 7.99694C10.6676 8.34691 10.5988 8.6935 10.465 9.01687C10.3311 9.34024 10.1349 9.63406 9.88739 9.88153C9.63992 10.129 9.3461 10.3253 9.02273 10.4591C8.69935 10.593 8.35277 10.6618 8.00279 10.6616Z" fill="#6A6A6A"/>
<path d="M11.2988 0.0502578C9.82682 -0.0184089 6.18082 -0.0150756 4.70749 0.0502578C3.41282 0.110924 2.27082 0.423591 1.35015 1.34426C-0.188515 2.88292 0.00815151 4.95626 0.00815151 7.99692C0.00815151 11.1089 -0.165182 13.1343 1.35015 14.6496C2.89482 16.1936 4.99815 15.9916 8.00282 15.9916C11.0855 15.9916 12.1495 15.9936 13.2395 15.5716C14.7215 14.9963 15.8402 13.6716 15.9495 11.2923C16.0188 9.81959 16.0148 6.17426 15.9495 4.70092C15.8175 1.89226 14.3102 0.188924 11.2988 0.0502578ZM13.6288 13.6316C12.6202 14.6403 11.2208 14.5503 7.98349 14.5503C4.65015 14.5503 3.31348 14.5996 2.33815 13.6216C1.21482 12.5036 1.41815 10.7083 1.41815 7.98626C1.41815 4.30292 1.04015 1.65026 4.73682 1.46092C5.58615 1.43092 5.83615 1.42092 7.97415 1.42092L8.00415 1.44092C11.5568 1.44092 14.3442 1.06892 14.5115 4.76492C14.5495 5.60826 14.5582 5.86159 14.5582 7.99626C14.5575 11.2909 14.6202 12.6356 13.6288 13.6316Z" fill="#6A6A6A"/>
<path d="M12.2709 4.68917C12.8007 4.68917 13.2302 4.25967 13.2302 3.72984C13.2302 3.20002 12.8007 2.77051 12.2709 2.77051C11.741 2.77051 11.3115 3.20002 11.3115 3.72984C11.3115 4.25967 11.741 4.68917 12.2709 4.68917Z" fill="#6A6A6A"/>
</g>
<defs>
<clipPath id="clip0_73_369">
<rect width="16" height="16" fill="white"/>
</clipPath>
</defs>
</svg>
