<svg width="104" height="20" viewBox="0 0 104 20" fill="none" xmlns="http://www.w3.org/2000/svg">
<path d="M9.99979 14.3959L6.54145 16.4792C6.38867 16.5765 6.22895 16.6181 6.06229 16.6042C5.89562 16.5904 5.74979 16.5348 5.62479 16.4376C5.49979 16.3404 5.40256 16.219 5.33312 16.0734C5.26367 15.9279 5.24979 15.7645 5.29145 15.5834L6.20812 11.6459L3.14562 9.00008C3.00673 8.87508 2.92006 8.73258 2.88562 8.57258C2.85117 8.41258 2.86145 8.25647 2.91645 8.10425C2.97145 7.95203 3.05479 7.82703 3.16645 7.72925C3.27812 7.63147 3.4309 7.56897 3.62479 7.54175L7.66645 7.18758L9.22895 3.47925C9.2984 3.31258 9.40617 3.18758 9.55229 3.10425C9.6984 3.02091 9.84756 2.97925 9.99979 2.97925C10.152 2.97925 10.3012 3.02091 10.4473 3.10425C10.5934 3.18758 10.7012 3.31258 10.7706 3.47925L12.3331 7.18758L16.3748 7.54175C16.5692 7.56953 16.722 7.63203 16.8331 7.72925C16.9442 7.82647 17.0276 7.95147 17.0831 8.10425C17.1387 8.25703 17.1492 8.41341 17.1148 8.57341C17.0803 8.73341 16.9934 8.87564 16.854 9.00008L13.7915 11.6459L14.7081 15.5834C14.7498 15.764 14.7359 15.9273 14.6665 16.0734C14.597 16.2195 14.4998 16.3409 14.3748 16.4376C14.2498 16.5342 14.104 16.5898 13.9373 16.6042C13.7706 16.6187 13.6109 16.577 13.4581 16.4792L9.99979 14.3959Z" fill="#F89B19"/>
<path d="M30.9998 14.3959L27.5415 16.4792C27.3887 16.5765 27.229 16.6181 27.0623 16.6042C26.8956 16.5904 26.7498 16.5348 26.6248 16.4376C26.4998 16.3404 26.4026 16.219 26.3331 16.0734C26.2637 15.9279 26.2498 15.7645 26.2915 15.5834L27.2081 11.6459L24.1456 9.00008C24.0067 8.87508 23.9201 8.73258 23.8856 8.57258C23.8512 8.41258 23.8615 8.25647 23.9165 8.10425C23.9715 7.95203 24.0548 7.82703 24.1665 7.72925C24.2781 7.63147 24.4309 7.56897 24.6248 7.54175L28.6665 7.18758L30.229 3.47925C30.2984 3.31258 30.4062 3.18758 30.5523 3.10425C30.6984 3.02091 30.8476 2.97925 30.9998 2.97925C31.152 2.97925 31.3012 3.02091 31.4473 3.10425C31.5934 3.18758 31.7012 3.31258 31.7706 3.47925L33.3331 7.18758L37.3748 7.54175C37.5692 7.56953 37.722 7.63203 37.8331 7.72925C37.9442 7.82647 38.0276 7.95147 38.0831 8.10425C38.1387 8.25703 38.1492 8.41341 38.1148 8.57341C38.0803 8.73341 37.9934 8.87564 37.854 9.00008L34.7915 11.6459L35.7081 15.5834C35.7498 15.764 35.7359 15.9273 35.6665 16.0734C35.597 16.2195 35.4998 16.3409 35.3748 16.4376C35.2498 16.5342 35.104 16.5898 34.9373 16.6042C34.7706 16.6187 34.6109 16.577 34.4581 16.4792L30.9998 14.3959Z" fill="#F89B19"/>
<path d="M51.9998 14.3959L48.5415 16.4792C48.3887 16.5765 48.229 16.6181 48.0623 16.6042C47.8956 16.5904 47.7498 16.5348 47.6248 16.4376C47.4998 16.3404 47.4026 16.219 47.3331 16.0734C47.2637 15.9279 47.2498 15.7645 47.2915 15.5834L48.2081 11.6459L45.1456 9.00008C45.0067 8.87508 44.9201 8.73258 44.8856 8.57258C44.8512 8.41258 44.8615 8.25647 44.9165 8.10425C44.9715 7.95203 45.0548 7.82703 45.1665 7.72925C45.2781 7.63147 45.4309 7.56897 45.6248 7.54175L49.6665 7.18758L51.229 3.47925C51.2984 3.31258 51.4062 3.18758 51.5523 3.10425C51.6984 3.02091 51.8476 2.97925 51.9998 2.97925C52.152 2.97925 52.3012 3.02091 52.4473 3.10425C52.5934 3.18758 52.7012 3.31258 52.7706 3.47925L54.3331 7.18758L58.3748 7.54175C58.5692 7.56953 58.722 7.63203 58.8331 7.72925C58.9442 7.82647 59.0276 7.95147 59.0831 8.10425C59.1387 8.25703 59.1492 8.41341 59.1148 8.57341C59.0803 8.73341 58.9934 8.87564 58.854 9.00008L55.7915 11.6459L56.7081 15.5834C56.7498 15.764 56.7359 15.9273 56.6665 16.0734C56.597 16.2195 56.4998 16.3409 56.3748 16.4376C56.2498 16.5342 56.104 16.5898 55.9373 16.6042C55.7706 16.6187 55.6109 16.577 55.4581 16.4792L51.9998 14.3959Z" fill="#F89B19"/>
<path d="M72.9998 14.3959L69.5415 16.4792C69.3887 16.5765 69.229 16.6181 69.0623 16.6042C68.8956 16.5904 68.7498 16.5348 68.6248 16.4376C68.4998 16.3404 68.4026 16.219 68.3331 16.0734C68.2637 15.9279 68.2498 15.7645 68.2915 15.5834L69.2081 11.6459L66.1456 9.00008C66.0067 8.87508 65.9201 8.73258 65.8856 8.57258C65.8512 8.41258 65.8615 8.25647 65.9165 8.10425C65.9715 7.95203 66.0548 7.82703 66.1665 7.72925C66.2781 7.63147 66.4309 7.56897 66.6248 7.54175L70.6665 7.18758L72.229 3.47925C72.2984 3.31258 72.4062 3.18758 72.5523 3.10425C72.6984 3.02091 72.8476 2.97925 72.9998 2.97925C73.152 2.97925 73.3012 3.02091 73.4473 3.10425C73.5934 3.18758 73.7012 3.31258 73.7706 3.47925L75.3331 7.18758L79.3748 7.54175C79.5692 7.56953 79.722 7.63203 79.8331 7.72925C79.9442 7.82647 80.0276 7.95147 80.0831 8.10425C80.1387 8.25703 80.1492 8.41341 80.1148 8.57341C80.0803 8.73341 79.9934 8.87564 79.854 9.00008L76.7915 11.6459L77.7081 15.5834C77.7498 15.764 77.7359 15.9273 77.6665 16.0734C77.597 16.2195 77.4998 16.3409 77.3748 16.4376C77.2498 16.5342 77.104 16.5898 76.9373 16.6042C76.7706 16.6187 76.6109 16.577 76.4581 16.4792L72.9998 14.3959Z" fill="#F89B19"/>
<path d="M93.9998 14.3959L90.5415 16.4792C90.3887 16.5765 90.229 16.6181 90.0623 16.6042C89.8956 16.5904 89.7498 16.5348 89.6248 16.4376C89.4998 16.3404 89.4026 16.219 89.3331 16.0734C89.2637 15.9279 89.2498 15.7645 89.2915 15.5834L90.2081 11.6459L87.1456 9.00008C87.0067 8.87508 86.9201 8.73258 86.8856 8.57258C86.8512 8.41258 86.8615 8.25647 86.9165 8.10425C86.9715 7.95203 87.0548 7.82703 87.1665 7.72925C87.2781 7.63147 87.4309 7.56897 87.6248 7.54175L91.6665 7.18758L93.229 3.47925C93.2984 3.31258 93.4062 3.18758 93.5523 3.10425C93.6984 3.02091 93.8476 2.97925 93.9998 2.97925C94.152 2.97925 94.3012 3.02091 94.4473 3.10425C94.5934 3.18758 94.7012 3.31258 94.7706 3.47925L96.3331 7.18758L100.375 7.54175C100.569 7.56953 100.722 7.63203 100.833 7.72925C100.944 7.82647 101.028 7.95147 101.083 8.10425C101.139 8.25703 101.149 8.41341 101.115 8.57341C101.08 8.73341 100.993 8.87564 100.854 9.00008L97.7915 11.6459L98.7081 15.5834C98.7498 15.764 98.7359 15.9273 98.6665 16.0734C98.597 16.2195 98.4998 16.3409 98.3748 16.4376C98.2498 16.5342 98.104 16.5898 97.9373 16.6042C97.7706 16.6187 97.6109 16.577 97.4581 16.4792L93.9998 14.3959Z" fill="#F89B19"/>
</svg>
