<svg width="22" height="22" viewBox="0 0 22 22" fill="none" xmlns="http://www.w3.org/2000/svg">
<g clip-path="url(#clip0_231_2014)">
<path d="M20.625 19.25H1.37501C0.615586 19.25 0 18.6344 0 17.875C0 17.1156 0.615586 16.5 1.37501 16.5H20.625C21.3844 16.5 22 17.1156 22 17.875C22 18.6344 21.3844 19.25 20.625 19.25ZM20.625 12.375H1.37501C0.615586 12.375 0 11.7594 0 11C0 10.2406 0.615586 9.62502 1.37501 9.62502H20.625C21.3844 9.62502 22 10.2406 22 11C22 11.7594 21.3844 12.375 20.625 12.375ZM20.625 5.49999H1.37501C0.615586 5.49999 0 4.8844 0 4.12498C0 3.36556 0.615586 2.74997 1.37501 2.74997H20.625C21.3844 2.74997 22 3.36556 22 4.12498C22 4.8844 21.3844 5.49999 20.625 5.49999Z" fill="#010101"/>
</g>
<defs>
<clipPath id="clip0_231_2014">
<rect width="22" height="22" fill="white"/>
</clipPath>
</defs>
</svg>
