<svg width="71" height="18" viewBox="0 0 71 18" fill="none" xmlns="http://www.w3.org/2000/svg">
<path d="M0 17.2671L6.25296 0.5H8.89572L3.0203 17.2671H0ZM12.8127 17.2671L6.96084 0.5H9.74517L15.9745 17.2671H12.8127ZM3.23266 10.6767H12.5295V13.0986H3.23266V10.6767Z" fill="white"/>
<path d="M17.7536 17.2671V5.39041H20.656V8.25479H20.7267V17.2671H17.7536ZM20.7267 11.0726L20.42 8.25479C20.7031 7.24566 21.1829 6.47717 21.8594 5.94931C22.5358 5.42146 23.3459 5.15753 24.2898 5.15753C24.6201 5.15753 24.8561 5.18858 24.9976 5.25068V8.02192C24.919 7.99087 24.8089 7.97534 24.6673 7.97534C24.5257 7.95982 24.3527 7.95206 24.1482 7.95206C22.9998 7.95206 22.1425 8.20046 21.5762 8.69726C21.0099 9.19406 20.7267 9.98585 20.7267 11.0726Z" fill="white"/>
<path d="M30.1261 17.2671L25.3125 5.39041H28.5216L32.3677 16.3123H30.7868L34.6329 5.39041H37.7476L32.9104 17.2671H30.1261Z" fill="white"/>
<path d="M44.0828 17.5C42.8086 17.5 41.6839 17.2361 40.7086 16.7082C39.749 16.1804 39.0018 15.4507 38.4669 14.5192C37.9321 13.5721 37.6647 12.4932 37.6647 11.2822C37.6647 10.0712 37.9321 9.00776 38.4669 8.09178C39.0018 7.1758 39.749 6.46164 40.7086 5.94931C41.6839 5.42146 42.8086 5.15753 44.0828 5.15753C45.3727 5.15753 46.4975 5.42146 47.457 5.94931C48.4166 6.46164 49.1638 7.1758 49.6987 8.09178C50.2335 9.00776 50.5009 10.0712 50.5009 11.2822C50.5009 12.4932 50.2256 13.5721 49.6751 14.5192C49.1402 15.4507 48.393 16.1804 47.4334 16.7082C46.4739 17.2361 45.357 17.5 44.0828 17.5ZM44.0828 15.1479C44.712 15.1479 45.2783 14.9927 45.7817 14.6822C46.2851 14.3562 46.6784 13.9059 46.9615 13.3315C47.2447 12.7416 47.3862 12.0507 47.3862 11.2589C47.3862 10.0945 47.0716 9.17854 46.4424 8.51096C45.8289 7.84338 45.0424 7.50959 44.0828 7.50959C43.1232 7.50959 42.3288 7.84338 41.6996 8.51096C41.0704 9.17854 40.7557 10.0945 40.7557 11.2589C40.7557 12.0507 40.8973 12.7416 41.1805 13.3315C41.4794 13.9059 41.8726 14.3562 42.3603 14.6822C42.8637 14.9927 43.4378 15.1479 44.0828 15.1479Z" fill="white"/>
<path d="M52.2159 17.2671V5.39041H55.1182V8.25479H55.189V17.2671H52.2159ZM55.189 11.0726L54.8822 8.25479C55.1654 7.24566 55.6452 6.47717 56.3216 5.94931C56.998 5.42146 57.8081 5.15753 58.752 5.15753C59.0823 5.15753 59.3183 5.18858 59.4599 5.25068V8.02192C59.3812 7.99087 59.2711 7.97534 59.1295 7.97534C58.9879 7.95982 58.8149 7.95206 58.6104 7.95206C57.4621 7.95206 56.6047 8.20046 56.0384 8.69726C55.4721 9.19406 55.189 9.98585 55.189 11.0726Z" fill="white"/>
<path d="M68.0269 17.2671C67.9482 16.9566 67.8853 16.6151 67.8381 16.2425C67.8067 15.8699 67.7909 15.4196 67.7909 14.8918H67.6965V9.25616C67.6965 8.63516 67.5156 8.16941 67.1538 7.8589C66.8078 7.53288 66.2729 7.36986 65.5493 7.36986C64.8414 7.36986 64.2751 7.50183 63.8504 7.76575C63.4414 8.01416 63.1897 8.379 63.0953 8.86027H60.2402C60.366 7.75799 60.9009 6.8653 61.8447 6.18219C62.7886 5.49909 64.0549 5.15753 65.6437 5.15753C67.2954 5.15753 68.546 5.53014 69.3955 6.27534C70.2449 7.00502 70.6697 8.08402 70.6697 9.51233V14.8918C70.6697 15.2644 70.6933 15.6447 70.7404 16.0329C70.8034 16.421 70.8899 16.8324 71 17.2671H68.0269ZM63.8504 17.5C62.6391 17.5 61.6717 17.205 60.9481 16.6151C60.2402 16.0096 59.8863 15.2023 59.8863 14.1932C59.8863 13.1064 60.2874 12.2447 61.0897 11.6082C61.8919 10.9717 63.0245 10.5447 64.4875 10.3274L68.2393 9.76849V11.6315L64.983 12.1205C64.2751 12.2292 63.7403 12.4233 63.3785 12.7027C63.0324 12.9822 62.8594 13.3703 62.8594 13.8671C62.8594 14.3174 63.0245 14.6667 63.3549 14.9151C63.6852 15.1479 64.1414 15.2644 64.7234 15.2644C65.5729 15.2644 66.2808 15.0548 66.8471 14.6356C67.4134 14.2164 67.6965 13.7041 67.6965 13.0986L68.0269 14.8918C67.7123 15.7457 67.1932 16.3977 66.4696 16.8479C65.7617 17.2826 64.8886 17.5 63.8504 17.5Z" fill="white"/>
</svg>
